<svg xmlns="http://www.w3.org/2000/svg" xmlns:xlink="http://www.w3.org/1999/xlink" version="1.1" width="800" height="800" viewBox="0 0 800 800" xml:space="preserve">
<desc>Created with Fabric.js 3.5.0</desc>
<defs>
</defs>
<g transform="matrix(6.1 0 0 6.1 400 400)" id="836981">
<path style="stroke: none; stroke-width: 0; stroke-dasharray: none; stroke-linecap: butt; stroke-dashoffset: 0; stroke-linejoin: miter; stroke-miterlimit: 4; is-custom-font: none; font-file-url: none; fill: rgb(128,128,142); fill-rule: nonzero; opacity: 1;" vector-effect="non-scaling-stroke" transform=" translate(-67.5, -67.5)" d="M 132.5 67.5 C 132.5 103.399 103.399 132.5 67.5 132.5 C 31.6015 132.5 2.5 103.399 2.5 67.5 C 2.5 31.6015 31.6015 2.5 67.5 2.5 C 103.399 2.5 132.5 31.6015 132.5 67.5 Z" stroke-linecap="round"/>
</g>
<g transform="matrix(4.8 0 0 8.73 600 600)" id="324873">
<path style="stroke: none; stroke-width: 0; stroke-dasharray: none; stroke-linecap: butt; stroke-dashoffset: 0; stroke-linejoin: miter; stroke-miterlimit: 4; is-custom-font: none; font-file-url: none; fill: rgb(128,128,142); fill-rule: nonzero; opacity: 1;" vector-effect="non-scaling-stroke" transform=" translate(-43.5, -25)" d="M 2.5 2.5 H 84.5 V 47.5 H 2.5 V 2.5 Z" stroke-linecap="round"/>
</g>
<g transform="matrix(1 0 0 1 430 430)" style="" id="468501">
		
<path xml:space="preserve" font-family="Acme" font-size="479" font-style="normal" font-weight="normal" style="stroke: none; stroke-width: 1; stroke-dasharray: none; stroke-linecap: butt; stroke-dashoffset: 0; stroke-linejoin: miter; stroke-miterlimit: 4; is-custom-font: none; font-file-url: none; fill: rgb(255,255,255); fill-rule: nonzero; opacity: 1; white-space: pre;" d="M-268.72 106.88L-231.36 55.15Q-190.64 95.87-149.93 95.87L-149.93 95.87Q-128.85 95.87-116.16 86.05Q-103.46 76.23-103.46 60.66Q-103.46 45.09-118.79 34.32Q-134.12 23.54-155.91 15.40Q-177.71 7.25-199.26-3.05Q-220.82-13.34-236.15-32.50Q-251.48-51.66-251.48-78.97L-251.48-78.97Q-251.48-122.08-215.55-153.45Q-179.63-184.83-130.29-184.83L-130.29-184.83Q-107.78-184.83-86.70-180.04Q-65.62-175.25-45.98-166.15L-45.98-166.15L-78.56-96.21Q-91.97-106.75-115.20-115.61Q-138.43-124.47-155.91-124.47Q-173.40-124.47-184.18-116.09Q-194.95-107.71-194.95-93.82Q-194.95-79.93-179.63-69.15Q-164.30-58.37-142.50-50.23Q-120.71-42.08-98.91-32.27Q-77.12-22.45-61.79-3.29Q-46.46 15.87-46.46 43.18L-46.46 43.18Q-46.46 88.20-82.39 121.97Q-118.31 155.74-166.21 155.74L-166.21 155.74Q-202.14 155.74-229.92 138.50L-229.92 138.50Q-254.35 123.65-264.41 112.15L-264.41 112.15L-268.72 106.88Z"/><path xml:space="preserve" font-family="Acme" font-size="479" font-style="normal" font-weight="normal" style="stroke: none; stroke-width: 1; stroke-dasharray: none; stroke-linecap: butt; stroke-dashoffset: 0; stroke-linejoin: miter; stroke-miterlimit: 4; is-custom-font: none; font-file-url: none; fill: rgb(255,255,255); fill-rule: nonzero; opacity: 1; white-space: pre;" d="M36.40-170.46L104.42-182.43L99.15-26.28L221.30-181.47L270.16-148.90L159.99-21.01L276.86 117.42L215.55 155.74L98.67-9.51L97.72 25.93L103.46 150.47L36.40 150.47L42.15 34.08L36.40-170.46Z"/></g>
</svg>